<mxfile host="app.diagrams.net" modified="2024-03-04T18:12:32.141Z" agent="Mozilla/5.0 (Windows NT 10.0; Win64; x64) AppleWebKit/537.36 (KHTML, like Gecko) Chrome/122.0.0.0 Safari/537.36 Edg/122.0.0.0" etag="9KeoOjsmdG83v1EJGiuN" version="23.1.6" type="device">
  <diagram id="R2lEEEUBdFMjLlhIrx00" name="Page-1">
    <mxGraphModel dx="1002" dy="665" grid="1" gridSize="10" guides="1" tooltips="1" connect="1" arrows="1" fold="1" page="1" pageScale="1" pageWidth="850" pageHeight="1100" math="0" shadow="0" extFonts="Permanent Marker^https://fonts.googleapis.com/css?family=Permanent+Marker">
      <root>
        <mxCell id="0" />
        <mxCell id="1" parent="0" />
        <mxCell id="oK8ABF-2ZauaYaYeu6GI-4" style="edgeStyle=orthogonalEdgeStyle;rounded=0;orthogonalLoop=1;jettySize=auto;html=1;exitX=1;exitY=0.5;exitDx=0;exitDy=0;entryX=0;entryY=0.5;entryDx=0;entryDy=0;" edge="1" parent="1" source="oK8ABF-2ZauaYaYeu6GI-1" target="oK8ABF-2ZauaYaYeu6GI-2">
          <mxGeometry relative="1" as="geometry" />
        </mxCell>
        <mxCell id="oK8ABF-2ZauaYaYeu6GI-1" value="Customer" style="whiteSpace=wrap;html=1;align=center;" vertex="1" parent="1">
          <mxGeometry x="40" y="120" width="100" height="40" as="geometry" />
        </mxCell>
        <mxCell id="oK8ABF-2ZauaYaYeu6GI-2" value="Order" style="whiteSpace=wrap;html=1;align=center;" vertex="1" parent="1">
          <mxGeometry x="240" y="120" width="100" height="40" as="geometry" />
        </mxCell>
        <mxCell id="oK8ABF-2ZauaYaYeu6GI-5" style="edgeStyle=orthogonalEdgeStyle;rounded=0;orthogonalLoop=1;jettySize=auto;html=1;exitX=0;exitY=0.5;exitDx=0;exitDy=0;" edge="1" parent="1" source="oK8ABF-2ZauaYaYeu6GI-3" target="oK8ABF-2ZauaYaYeu6GI-2">
          <mxGeometry relative="1" as="geometry" />
        </mxCell>
        <mxCell id="oK8ABF-2ZauaYaYeu6GI-3" value="Product" style="whiteSpace=wrap;html=1;align=center;" vertex="1" parent="1">
          <mxGeometry x="440" y="120" width="100" height="40" as="geometry" />
        </mxCell>
      </root>
    </mxGraphModel>
  </diagram>
</mxfile>
